<svg id="Capa_1" enable-background="new 0 0 512 512" height="512" viewBox="0 0 512 512" width="512" xmlns="http://www.w3.org/2000/svg"><g><g><path d="m408 27.99h-304c-53.019 0-96 42.981-96 96v176c0 53.019 42.981 96 96 96h200l84.7 84.7c7.122 7.122 19.3 2.078 19.3-7.994v-76.706c53.02 0 96-42.981 96-96v-176c0-53.02-42.981-96-96-96z" fill="#bef2f5"/></g><g><path d="m408 27.99h-264c0 13.255 10.745 24 24 24h240c39.764 0 72 32.236 72 72v176c0 30.043-18.501 55.826-44.704 66.596-11.725 4.818-19.296 16.323-19.296 29 49.267-4.075 88-45.278 88-95.596v-176c0-53.02-42.981-96-96-96z" fill="#fff"/></g><path d="m447.485 277.587-50.917-134.922c-.028-.073-.057-.146-.086-.219-1.719-4.179-5.748-6.878-10.267-6.878-.003 0-.008 0-.011 0-4.523.004-8.552 2.712-10.264 6.899-.024.06-.048.12-.071.181l-51.385 134.916c-1.573 4.129.5 8.75 4.629 10.323.937.357 1.899.526 2.846.526 3.224 0 6.262-1.963 7.478-5.155l10.835-28.449h71.517l10.728 28.426c1.56 4.133 6.175 6.221 10.31 4.66 4.131-1.559 6.218-6.175 4.658-10.308zm-91.121-38.777 29.829-78.319 29.556 78.319z" fill="#283246"/><g><path d="m264.494 288.415c-14.838 0-15.644-.139-16.199-.234-3.841-.658-6.648-3.988-6.648-7.885v-136.728c0-4.418 3.582-8 8-8s8 3.582 8 8v128.838c9.972.029 27.738-.042 39.874-.11h.045c4.397 0 7.974 3.552 7.999 7.955.024 4.418-3.537 8.02-7.955 8.045-15.397.086-25.911.119-33.116.119z" fill="#283246"/></g><g><path d="m140.422 288.411c-42.139 0-76.422-34.282-76.422-76.421s34.283-76.421 76.422-76.421 76.421 34.283 76.421 76.421c0 42.139-34.282 76.421-76.421 76.421zm0-136.843c-33.317 0-60.422 27.105-60.422 60.422s27.105 60.422 60.422 60.422c33.316 0 60.421-27.105 60.421-60.422s-27.105-60.422-60.421-60.422z" fill="#283246"/></g><g><path d="m372.963 121.954c-2.94 0-5.77-1.627-7.169-4.438-1.968-3.956-.357-8.758 3.599-10.727l24.043-11.963c3.957-1.968 8.758-.356 10.727 3.599 1.968 3.956.357 8.758-3.599 10.727l-24.043 11.963c-1.145.569-2.36.839-3.558.839z" fill="#283246"/></g><g><path d="m396.675 492.01c-5.015 0-9.93-1.962-13.632-5.665l-82.356-82.356h-196.687c-57.346 0-104-46.654-104-104v-176c0-57.346 46.654-104 104-104h304c57.346 0 104 46.654 104 104v176c0 54.654-42.378 99.597-96 103.695v69.01c0 7.837-4.678 14.838-11.918 17.837-2.402.996-4.917 1.479-7.407 1.479zm-292.675-456.02c-48.523 0-88 39.477-88 88v176c0 48.523 39.477 88 88 88h200c2.122 0 4.157.843 5.657 2.343l84.7 84.7c1.359 1.358 2.839 1.032 3.602.717.762-.315 2.041-1.132 2.041-3.054v-76.706c0-4.418 3.582-8 8-8 48.523 0 88-39.477 88-88v-176c0-48.523-39.477-88-88-88z" fill="#00abd5"/></g><g><path d="m372 471.99c-2.047 0-4.095-.781-5.657-2.343l-65.657-65.657h-196.686c-57.346 0-104-46.654-104-104v-40c0-4.418 3.582-8 8-8s8 3.582 8 8v40c0 48.523 39.477 88 88 88h200c2.122 0 4.157.843 5.657 2.343l68 68c3.125 3.124 3.125 8.189 0 11.313-1.562 1.562-3.61 2.344-5.657 2.344z" fill="#283246"/></g></g></svg>